0
SECTION
2
HEADER
9
$INSUNITS
70
4
9
$ACADVER
1
AC1014
9
$HANDSEED
5
FFFF
0
ENDSEC
0
SECTION
2
TABLES
0
TABLE
2
VPORT
5
8
100
AcDbSymbolTable
0
ENDTAB
0
TABLE
2
LTYPE
5
5
100
AcDbSymbolTable
0
LTYPE
5
14
100
AcDbSymbolTableRecord
100
AcDbLinetypeTableRecord
2
BYBLOCK
70
0
0
LTYPE
5
15
100
AcDbSymbolTableRecord
100
AcDbLinetypeTableRecord
2
BYLAYER
70
0
0
ENDTAB
0
TABLE
2
LAYER
5
2
100
AcDbSymbolTable
70
2
0
LAYER
5
50
100
AcDbSymbolTableRecord
100
AcDbLayerTableRecord
2
0
70
0
6
CONTINUOUS
0
ENDTAB
0
TABLE
2
STYLE
5
3
100
AcDbSymbolTable
70
1
0
STYLE
5
11
100
AcDbSymbolTableRecord
100
AcDbTextStyleTableRecord
2
STANDARD
70
0
0
ENDTAB
0
TABLE
2
VIEW
5
6
100
AcDbSymbolTable
70
0
0
ENDTAB
0
TABLE
2
UCS
5
7
100
AcDbSymbolTable
70
0
0
ENDTAB
0
TABLE
2
APPID
5
9
100
AcDbSymbolTable
70
2
0
APPID
5
12
100
AcDbSymbolTableRecord
100
AcDbRegAppTableRecord
2
ACAD
70
0
0
ENDTAB
0
TABLE
2
DIMSTYLE
5
A
100
AcDbSymbolTable
70
1
0
ENDTAB
0
TABLE
2
BLOCK_RECORD
5
1
100
AcDbSymbolTable
70
1
0
BLOCK_RECORD
5
1F
100
AcDbSymbolTableRecord
100
AcDbBlockTableRecord
2
*MODEL_SPACE
0
BLOCK_RECORD
5
1B
100
AcDbSymbolTableRecord
100
AcDbBlockTableRecord
2
*PAPER_SPACE
0
ENDTAB
0
ENDSEC
0
SECTION
2
BLOCKS
0
BLOCK
5
20
100
AcDbEntity
100
AcDbBlockBegin
2
*MODEL_SPACE
0
ENDBLK
5
21
100
AcDbEntity
100
AcDbBlockEnd
0
BLOCK
5
1C
100
AcDbEntity
100
AcDbBlockBegin
2
*PAPER_SPACE
0
ENDBLK
5
1D
100
AcDbEntity
100
AcDbBlockEnd
0
ENDSEC
0
SECTION
2
ENTITIES
0
LWPOLYLINE
5
100
100
AcDbEntity
8
0
100
AcDbPolyline
90
14
70
1
43
0.0
10
-45.161249780964468
20
-398.37258276168484
10
-25.889170647056069
20
-412.00000060483592
10
25.566671085129343
20
-412.00000060483592
10
44.838750219035433
20
-398.37258276168586
10
44.838750219035447
20
-372.62670112225061
42
-0.97760001123358964
10
44.838750219035418
20
-361.62952330839119
10
44.838750219035433
20
-293.98311955048155
42
-0.64027643439013426
10
40.864479885344579
20
-284.81718409958069
10
25.566672280393231
20
-274.00000060483183
10
-25.889171842321975
20
-274.00000060483183
10
-41.035778236389973
20
-284.71026869804177
42
-0.66586566892342591
10
-45.161249780964489
20
-293.98311333974112
10
-45.161249780964525
20
-361.62840241495587
42
-1.0103258132525423
10
-45.161249780964468
20
-372.62782201568587
0
LWPOLYLINE
5
101
100
AcDbEntity
8
0
100
AcDbPolyline
90
6
70
1
43
0.0
10
-14.890462279967181
20
-337.55009040664413
10
-14.890462106715967
20
-353.72509033554377
10
-10.996448358199466
20
-355.32290315579786
10
-10.996448358199466
20
-357.65663979251985
10
-17.111114262247167
20
-354.82474383225883
10
-17.115046757558371
20
-337.55009040664385
0
LINE
5
102
100
AcDbEntity
8
0
100
AcDbLine
10
14.481515048352236
20
-353.72508240231076
30
-6.1817218011128716e-12
11
14.481515048352234
21
-337.55007044473876
31
-6.1994853695068741e-12
0
LINE
5
103
100
AcDbEntity
8
0
100
AcDbLine
10
14.481515048352234
20
-337.55007044473876
30
-6.1994853695068741e-12
11
16.706658632538332
21
-337.55007044473876
31
-6.1906035853098729e-12
0
LINE
5
104
100
AcDbEntity
8
0
100
AcDbLine
10
16.706658632538332
20
-337.55007044473876
30
-6.1906035853098729e-12
11
16.702127276999036
21
-354.82475555188279
31
-6.2527760746888816e-12
0
SPLINE
5
105
100
AcDbEntity
8
0
100
AcDbSpline
70
0
71
3
72
10
73
6
74
0
42
0.000000001
43
0.0000000001
44
0.0000000001
40
0.98868263057776296
40
0.98868263057776296
40
0.98868263057776296
40
0.98868263057776296
40
1.2351068944001999
40
1.2351068944001999
40
1.64171223501943
40
1.64171223501943
40
1.64171223501943
40
1.64171223501943
10
16.702127276999235
20
-354.82475555188279
30
-6.2527760746888816e-12
10
15.705306256334737
20
-355.28641395232887
30
-6.2527760746888816e-12
10
14.708485235670237
20
-355.74807235277484
30
-6.2438942904918804e-12
10
12.066888070170434
20
-356.97147705308385
30
-6.2350125062948791e-12
10
10.691088616045434
20
-357.59472765513584
30
-6.2261307220978779e-12
10
10.654333758219934
20
-357.59472765513584
30
-6.2261307220978779e-12
0
SPLINE
5
106
100
AcDbEntity
8
0
100
AcDbSpline
70
0
71
3
72
10
73
6
74
0
42
0.000000001
43
0.0000000001
44
0.0000000001
40
-0.072779611977489597
40
-0.072779611977489597
40
-0.072779611977489597
40
-0.072779611977489597
40
-0.045315771371325898
40
-0.045315771371325898
40
0
40
0
40
0
40
0
10
10.587506290312037
20
-355.32289317484481
30
-6.2705396430828841e-12
10
10.587506290312037
20
-355.7015305914008
30
-6.2616578588858829e-12
10
10.587506290312037
20
-356.08016800795787
30
-6.2527760746888816e-12
10
10.587506290312037
20
-357.08356315040385
30
-6.2350125062948791e-12
10
10.617578900394335
20
-357.59472765513584
30
-6.2261307220978779e-12
10
10.654333758219934
20
-357.59472765513584
30
-6.2261307220978779e-12
0
LINE
5
107
100
AcDbEntity
8
0
100
AcDbLine
10
10.587506290312037
20
-355.32289317484481
30
-6.2705396430828841e-12
11
14.481515048352236
21
-353.72508240231076
31
-6.1817218011128716e-12
0
SPLINE
5
108
100
AcDbEntity
8
0
100
AcDbSpline
70
0
71
3
72
10
73
6
74
0
42
0.000000001
43
0.0000000001
44
0.0000000001
40
-0.13043007111148999
40
-0.13043007111148999
40
-0.13043007111148999
40
-0.13043007111148999
40
-0.081211216463739799
40
-0.081211216463739799
40
0
40
0
40
0
40
0
10
7.1384883214893424
20
-337.55006046378685
30
-6.2350125062948791e-12
10
7.1384883214893327
20
-341.47840702563985
30
-6.2616578588858829e-12
10
7.1384883214893229
20
-345.40675358749183
30
-6.2794214272798854e-12
10
7.1384883214893025
20
-355.81688046021077
30
-6.3860028376439004e-12
10
7.1159014258316926
20
-361.1201498158548
30
-6.2883032114768866e-12
10
7.0883040919857727
20
-361.1201498158548
30
-6.2883032114768866e-12
0
LINE
5
109
100
AcDbEntity
8
0
100
AcDbLine
10
7.1384883214893424
20
-337.55006046378685
30
-6.2350125062948791e-12
11
9.2523792178948128
21
-337.55006046378685
31
-6.2261307220978779e-12
0
LINE
5
110
100
AcDbEntity
8
0
100
AcDbLine
10
9.2523792178948128
20
-337.55006046378685
30
-6.2261307220978779e-12
11
9.252409216703434
21
-364.39351441339977
31
-6.2172489379008766e-12
0
LINE
5
111
100
AcDbEntity
8
0
100
AcDbLine
10
9.252409216703434
20
-364.39351441339977
30
-6.2172489379008766e-12
11
-0.20448850061071736
21
-359.69140639884182
31
-6.2350125062948791e-12
0
LINE
5
112
100
AcDbEntity
8
0
100
AcDbLine
10
-0.20448850061071736
20
-359.69140639884182
30
-6.2350125062948791e-12
11
-9.6613811714976681
21
-364.39351190424185
31
-6.1817218011128716e-12
0
LINE
5
113
100
AcDbEntity
8
0
100
AcDbLine
10
-9.6613811714976681
20
-364.39351190424185
30
-6.1817218011128716e-12
11
-9.6613811714976698
21
-337.55008042569182
31
-6.1906035853098729e-12
0
LINE
5
114
100
AcDbEntity
8
0
100
AcDbLine
10
-9.6613811714976698
20
-337.55008042569182
30
-6.1906035853098729e-12
11
-7.5474852846158882
21
-337.55008042569182
31
-6.1817218011128716e-12
0
SPLINE
5
115
100
AcDbEntity
8
0
100
AcDbSpline
70
0
71
3
72
10
73
6
74
0
42
0.000000001
43
0.0000000001
44
0.0000000001
40
3.5355059032224498
40
3.5355059032224498
40
3.5355059032224498
40
3.5355059032224498
40
4.4056221697475797
40
4.4056221697475797
40
5.8413183204823902
40
5.8413183204823902
40
5.8413183204823902
40
5.8413183204823902
10
-7.5474852846158882
20
-337.55008042569182
30
-6.2883032114768866e-12
10
-7.5474852846158882
20
-341.47842033357585
30
-6.2172489379008766e-12
10
-7.5474852846158882
20
-345.40676024145978
30
-6.2350125062948791e-12
10
-7.5474852846158882
20
-355.81688046021077
30
-6.1373128801278654e-12
10
-7.5249183508633886
20
-361.1201498158548
30
-6.1373128801278654e-12
10
-7.4973160265411884
20
-361.1201498158548
30
-6.1373128801278654e-12
0
SPLINE
5
116
100
AcDbEntity
8
0
100
AcDbSpline
70
0
71
3
72
8
73
4
74
0
42
0.000000001
43
0.0000000001
44
0.0000000001
40
-0.12848348629416401
40
-0.12848348629416401
40
-0.12848348629416401
40
-0.12848348629416401
40
0
40
0
40
0
40
0
10
-2.5409097249589174
20
-358.59135571174284
30
-6.2616578588858829e-12
10
-2.5409097249589174
20
-358.65786877964479
30
-6.2616578588858829e-12
10
-7.3669597955485582
20
-361.1201498158548
30
-6.2350125062948791e-12
10
-7.4973160265411884
20
-361.1201498158548
30
-6.2350125062948791e-12
0
SPLINE
5
117
100
AcDbEntity
8
0
100
AcDbSpline
70
0
71
3
72
10
73
6
74
0
42
0.000000001
43
0.0000000001
44
0.0000000001
40
-0.117690066641676
40
-0.117690066641676
40
-0.117690066641676
40
-0.117690066641676
40
-0.0732787066441936
40
-0.0732787066441936
40
-1.38777878078145e-17
40
-1.38777878078145e-17
40
-1.38777878078145e-17
40
-1.38777878078145e-17
10
-4.3210275865936074
20
-357.6566556175278
30
-6.1906035853098729e-12
10
-4.0243421080672075
20
-357.79977045215281
30
-6.1906035853098729e-12
10
-3.7276566295408076
20
-357.94288528677885
30
-6.1817218011128716e-12
10
-2.9414403609696773
20
-358.32213947817087
30
-6.1728400169158704e-12
10
-2.5409097249589174
20
-358.54955548239479
30
-6.1639582327188691e-12
10
-2.5409097249589174
20
-358.59135571174284
30
-6.1639582327188691e-12
0
LINE
5
118
100
AcDbEntity
8
0
100
AcDbLine
10
-4.3210275865936074
20
-357.6566556175278
30
-6.1906035853098729e-12
11
-4.3210275865936172
21
-355.58018217009982
31
-6.2261307220978779e-12
0
LINE
5
119
100
AcDbEntity
8
0
100
AcDbLine
10
-4.3210275865936172
20
-355.58018217009982
30
-6.2261307220978779e-12
11
-2.3183993589213179
21
-355.58018217009982
31
-6.2172489379008766e-12
0
LINE
5
120
100
AcDbEntity
8
0
100
AcDbLine
10
-2.3183993589213179
20
-355.58018217009982
30
-6.2172489379008766e-12
11
-2.3183993589213383
21
-356.43636824314484
31
-6.2083671537038754e-12
0
LINE
5
121
100
AcDbEntity
8
0
100
AcDbLine
10
-2.3183993589213383
20
-356.43636824314484
30
-6.2083671537038754e-12
11
-0.20474551014520859
21
-357.50317111784682
31
-6.2705396430828841e-12
0
LINE
5
122
100
AcDbEntity
8
0
100
AcDbLine
10
-0.20474551014520859
20
-357.50317111784682
30
-6.2705396430828841e-12
11
1.9088933665678223
21
-356.43637076227486
31
-6.1906035853098729e-12
0
LINE
5
123
100
AcDbEntity
8
0
100
AcDbLine
10
1.9088933665678223
20
-356.43637076227486
30
-6.1906035853098729e-12
11
1.9091129481703621
21
-355.58018217009982
31
-6.1994853695068741e-12
0
LINE
5
124
100
AcDbEntity
8
0
100
AcDbLine
10
1.9091129481703621
20
-355.58018217009982
30
-6.1994853695068741e-12
11
3.9117511567951828
21
-355.58018217009982
31
-6.1906035853098729e-12
0
LINE
5
125
100
AcDbEntity
8
0
100
AcDbLine
10
3.9117511567951828
20
-355.58018217009982
30
-6.1906035853098729e-12
11
3.9117511567951722
21
-357.65665321022686
31
-6.2527760746888816e-12
0
SPLINE
5
126
100
AcDbEntity
8
0
100
AcDbSpline
70
0
71
3
72
10
73
6
74
0
42
0.000000001
43
0.0000000001
44
0.0000000001
40
0.29646342581903401
40
0.29646342581903401
40
0.29646342581903401
40
0.29646342581903401
40
0.371741286968645
40
0.371741286968645
40
0.49594899813106003
40
0.49594899813106003
40
0.49594899813106003
40
0.49594899813106003
10
3.9117511567954932
20
-357.65665321022686
30
-6.2527760746888816e-12
10
3.6150640147768924
20
-357.7997688472858
30
-6.2527760746888816e-12
10
3.3183768727583027
20
-357.94288448434486
30
-6.2438942904918804e-12
10
2.532158940694953
20
-358.32213947817087
30
-6.2527760746888816e-12
10
2.1316332951605124
20
-358.54955548239479
30
-6.2438942904918804e-12
10
2.1316332951605124
20
-358.59135571174284
30
-6.2438942904918804e-12
0
SPLINE
5
127
100
AcDbEntity
8
0
100
AcDbSpline
70
0
71
3
72
8
73
4
74
0
42
0.000000001
43
0.0000000001
44
0.0000000001
40
-0.15355457796288799
40
-0.15355457796288799
40
-0.15355457796288799
40
-0.15355457796288799
40
0
40
0
40
0
40
0
10
7.0883040919857727
20
-361.1201498158548
30
-6.1817218011128716e-12
10
6.9579428705168738
20
-361.1201498158548
30
-6.1817218011128716e-12
10
2.1319027808797926
20
-358.65786877964479
30
-6.2438942904918804e-12
10
2.1316332951605124
20
-358.59135571174284
30
-6.2438942904918804e-12
0
LWPOLYLINE
5
128
100
AcDbEntity
8
0
100
AcDbPolyline
90
8
70
1
43
0.0
10
1.6868970202334421
20
-354.17001330581286
10
1.6868970202334315
20
-339.16171481752986
10
-2.2071167282829887
20
-339.16171481753082
10
-2.2071167282829878
20
-354.17001330581286
10
-4.4322603124691282
20
-354.17001330581286
10
-4.4322603124691486
20
-337.55009040664385
10
3.9120406044195817
20
-337.55009040664385
10
3.9120406044195821
20
-354.17001330581286
0
LWPOLYLINE
5
129
100
AcDbEntity
8
0
100
AcDbPolyline
90
14
70
1
43
0.0
10
-45.161249780964468
20
-398.37258276168484
10
-25.889170647056069
20
-412.00000060483592
10
25.566671085129343
20
-412.00000060483592
10
44.838750219035433
20
-398.37258276168586
10
44.838750219035461
20
-372.62670112225067
42
-0.97760001123359919
10
44.838750219035418
20
-361.62952330839119
10
44.838750219035433
20
-293.98311955048155
42
-0.64027643439013493
10
40.864479885344579
20
-284.81718409958069
10
25.566672280393227
20
-274.00000060483183
10
-25.889171842321975
20
-274.00000060483183
10
-41.035778236389945
20
-284.71026869804172
42
-0.66586566892342591
10
-45.161249780964489
20
-293.98311333974112
10
-45.161249780964468
20
-361.62840241495587
42
-1.0103258132525423
10
-45.161249780964468
20
-372.62782201568587
0
LWPOLYLINE
5
130
100
AcDbEntity
8
0
100
AcDbPolyline
90
6
70
1
43
0.0
10
-14.890462279967181
20
-337.55009040664413
10
-14.890462106715969
20
-353.72509033554377
10
-10.996448358199466
20
-355.32290315579786
10
-10.996448358199466
20
-357.65663979251985
10
-17.111114262247167
20
-354.82474383225883
10
-17.115046757558368
20
-337.55009040664385
0
LINE
5
131
100
AcDbEntity
8
0
100
AcDbLine
10
14.481515048352236
20
-353.72508240231076
30
8.8817841970012523e-15
11
14.481515048352236
21
-337.55007044473876
31
8.8817841970012523e-15
0
LINE
5
132
100
AcDbEntity
8
0
100
AcDbLine
10
14.481515048352236
20
-337.55007044473876
30
8.8817841970012523e-15
11
16.706658632538332
21
-337.55007044473876
31
8.8817841970012523e-15
0
LINE
5
133
100
AcDbEntity
8
0
100
AcDbLine
10
16.706658632538332
20
-337.55007044473876
30
8.8817841970012523e-15
11
16.702127276999033
21
-354.82475555188279
31
8.8817841970012523e-15
0
SPLINE
5
134
100
AcDbEntity
8
0
100
AcDbSpline
70
0
71
3
72
10
73
6
74
0
42
0.000000001
43
0.0000000001
44
0.0000000001
40
0.98868263057776296
40
0.98868263057776296
40
0.98868263057776296
40
0.98868263057776296
40
1.2351068944001999
40
1.2351068944001999
40
1.64171223501943
40
1.64171223501943
40
1.64171223501943
40
1.64171223501943
10
16.702127276999235
20
-354.82475555188279
30
8.8817841970012523e-15
10
15.705306256334737
20
-355.28641395232887
30
0
10
14.708485235670237
20
-355.74807235277484
30
8.8817841970012523e-15
10
12.066888070170434
20
-356.97147705308385
30
0
10
10.691088616045434
20
-357.59472765513584
30
0
10
10.654333758219934
20
-357.59472765513584
30
0
0
SPLINE
5
135
100
AcDbEntity
8
0
100
AcDbSpline
70
0
71
3
72
10
73
6
74
0
42
0.000000001
43
0.0000000001
44
0.0000000001
40
-0.072779611977489597
40
-0.072779611977489597
40
-0.072779611977489597
40
-0.072779611977489597
40
-0.045315771371325898
40
-0.045315771371325898
40
0
40
0
40
0
40
0
10
10.587506290312037
20
-355.32289317484481
30
0
10
10.587506290312037
20
-355.7015305914008
30
8.8817841970012523e-15
10
10.587506290312037
20
-356.08016800795787
30
8.8817841970012523e-15
10
10.587506290312037
20
-357.08356315040385
30
8.8817841970012523e-15
10
10.617578900394335
20
-357.59472765513584
30
0
10
10.654333758219934
20
-357.59472765513584
30
0
0
LINE
5
136
100
AcDbEntity
8
0
100
AcDbLine
10
10.587506290312037
20
-355.32289317484481
30
0
11
14.481515048352236
21
-353.72508240231076
31
8.8817841970012523e-15
0
SPLINE
5
137
100
AcDbEntity
8
0
100
AcDbSpline
70
0
71
3
72
10
73
6
74
0
42
0.000000001
43
0.0000000001
44
0.0000000001
40
-0.13043007111148999
40
-0.13043007111148999
40
-0.13043007111148999
40
-0.13043007111148999
40
-0.081211216463739799
40
-0.081211216463739799
40
0
40
0
40
0
40
0
10
7.1384883214893424
20
-337.55006046378685
30
0
10
7.1384883214893327
20
-341.47840702563985
30
0
10
7.1384883214893229
20
-345.40675358749183
30
0
10
7.1384883214893025
20
-355.81688046021077
30
0
10
7.1159014258316926
20
-361.1201498158548
30
-8.8817841970012523e-15
10
7.0883040919857727
20
-361.1201498158548
30
-8.8817841970012523e-15
0
LINE
5
138
100
AcDbEntity
8
0
100
AcDbLine
10
7.1384883214893424
20
-337.55006046378685
30
0
11
9.2523792178948128
21
-337.55006046378685
31
-3.0913372838549037e-42
0
LINE
5
139
100
AcDbEntity
8
0
100
AcDbLine
10
9.2523792178948128
20
-337.55006046378685
30
-3.0913372838549037e-42
11
9.252409216703434
21
-364.39351441339977
31
0
0
LINE
5
140
100
AcDbEntity
8
0
100
AcDbLine
10
9.252409216703434
20
-364.39351441339977
30
0
11
-0.20448850061071666
21
-359.69140639884182
31
-8.8817841970012523e-15
0
LINE
5
141
100
AcDbEntity
8
0
100
AcDbLine
10
-0.20448850061071666
20
-359.69140639884182
30
-8.8817841970012523e-15
11
-9.6613811714976681
21
-364.39351190424185
31
0
0
LINE
5
142
100
AcDbEntity
8
0
100
AcDbLine
10
-9.6613811714976681
20
-364.39351190424185
30
0
11
-9.6613811714976698
21
-337.55008042569182
31
0
0
LINE
5
143
100
AcDbEntity
8
0
100
AcDbLine
10
-9.6613811714976698
20
-337.55008042569182
30
0
11
-7.5474852846158882
21
-337.55008042569182
31
8.8817841970012523e-15
0
SPLINE
5
144
100
AcDbEntity
8
0
100
AcDbSpline
70
0
71
3
72
10
73
6
74
0
42
0.000000001
43
0.0000000001
44
0.0000000001
40
3.5355059032224498
40
3.5355059032224498
40
3.5355059032224498
40
3.5355059032224498
40
4.4056221697475797
40
4.4056221697475797
40
5.8413183204823902
40
5.8413183204823902
40
5.8413183204823902
40
5.8413183204823902
10
-7.5474852846158882
20
-337.55008042569182
30
8.8817841970012523e-15
10
-7.5474852846158882
20
-341.47842033357585
30
0
10
-7.5474852846158882
20
-345.40676024145978
30
8.8817841970012523e-15
10
-7.5474852846158882
20
-355.81688046021077
30
8.8817841970012523e-15
10
-7.5249183508633886
20
-361.1201498158548
30
0
10
-7.4973160265411884
20
-361.1201498158548
30
0
0
SPLINE
5
145
100
AcDbEntity
8
0
100
AcDbSpline
70
0
71
3
72
8
73
4
74
0
42
0.000000001
43
0.0000000001
44
0.0000000001
40
-0.12848348629416401
40
-0.12848348629416401
40
-0.12848348629416401
40
-0.12848348629416401
40
0
40
0
40
0
40
0
10
-2.5409097249589174
20
-358.59135571174284
30
0
10
-2.5409097249589174
20
-358.65786877964479
30
0
10
-7.3669597955485582
20
-361.1201498158548
30
0
10
-7.4973160265411884
20
-361.1201498158548
30
0
0
SPLINE
5
146
100
AcDbEntity
8
0
100
AcDbSpline
70
0
71
3
72
10
73
6
74
0
42
0.000000001
43
0.0000000001
44
0.0000000001
40
-0.117690066641676
40
-0.117690066641676
40
-0.117690066641676
40
-0.117690066641676
40
-0.0732787066441936
40
-0.0732787066441936
40
-1.38777878078145e-17
40
-1.38777878078145e-17
40
-1.38777878078145e-17
40
-1.38777878078145e-17
10
-4.3210275865936074
20
-357.6566556175278
30
0
10
-4.0243421080672075
20
-357.79977045215281
30
0
10
-3.7276566295408076
20
-357.94288528677885
30
0
10
-2.9414403609696773
20
-358.32213947817087
30
0
10
-2.5409097249589174
20
-358.54955548239479
30
0
10
-2.5409097249589174
20
-358.59135571174284
30
0
0
LINE
5
147
100
AcDbEntity
8
0
100
AcDbLine
10
-4.3210275865936074
20
-357.6566556175278
30
0
11
-4.3210275865936172
21
-355.58018217009982
31
0
0
LINE
5
148
100
AcDbEntity
8
0
100
AcDbLine
10
-4.3210275865936172
20
-355.58018217009982
30
0
11
-2.3183993589213174
21
-355.58018217009982
31
8.8817841970012523e-15
0
LINE
5
149
100
AcDbEntity
8
0
100
AcDbLine
10
-2.3183993589213174
20
-355.58018217009982
30
8.8817841970012523e-15
11
-2.3183993589213383
21
-356.43636824314484
31
8.8817841970012523e-15
0
LINE
5
150
100
AcDbEntity
8
0
100
AcDbLine
10
-2.3183993589213383
20
-356.43636824314484
30
8.8817841970012523e-15
11
-0.20474551014520892
21
-357.50317111784682
31
-3.944304526105059e-30
0
LINE
5
151
100
AcDbEntity
8
0
100
AcDbLine
10
-0.20474551014520892
20
-357.50317111784682
30
-3.944304526105059e-30
11
1.9088933665678227
21
-356.43637076227486
31
8.8817841970012444e-15
0
LINE
5
152
100
AcDbEntity
8
0
100
AcDbLine
10
1.9088933665678227
20
-356.43637076227486
30
8.8817841970012444e-15
11
1.9091129481703621
21
-355.58018217009982
31
0
0
LINE
5
153
100
AcDbEntity
8
0
100
AcDbLine
10
1.9091129481703621
20
-355.58018217009982
30
0
11
3.9117511567951824
21
-355.58018217009982
31
8.8817841970012523e-15
0
LINE
5
154
100
AcDbEntity
8
0
100
AcDbLine
10
3.9117511567951824
20
-355.58018217009982
30
8.8817841970012523e-15
11
3.9117511567951722
21
-357.65665321022686
31
8.8817841970012602e-15
0
SPLINE
5
155
100
AcDbEntity
8
0
100
AcDbSpline
70
0
71
3
72
10
73
6
74
0
42
0.000000001
43
0.0000000001
44
0.0000000001
40
0.29646342581903401
40
0.29646342581903401
40
0.29646342581903401
40
0.29646342581903401
40
0.371741286968645
40
0.371741286968645
40
0.49594899813106003
40
0.49594899813106003
40
0.49594899813106003
40
0.49594899813106003
10
3.9117511567954932
20
-357.65665321022686
30
0
10
3.6150640147768924
20
-357.7997688472858
30
0
10
3.3183768727583027
20
-357.94288448434486
30
8.8817841970012523e-15
10
2.532158940694953
20
-358.32213947817087
30
0
10
2.1316332951605124
20
-358.54955548239479
30
0
10
2.1316332951605124
20
-358.59135571174284
30
0
0
SPLINE
5
156
100
AcDbEntity
8
0
100
AcDbSpline
70
0
71
3
72
8
73
4
74
0
42
0.000000001
43
0.0000000001
44
0.0000000001
40
-0.15355457796288799
40
-0.15355457796288799
40
-0.15355457796288799
40
-0.15355457796288799
40
0
40
0
40
0
40
0
10
7.0883040919857727
20
-361.1201498158548
30
-8.8817841970012523e-15
10
6.9579428705168738
20
-361.1201498158548
30
0
10
2.1319027808797926
20
-358.65786877964479
30
0
10
2.1316332951605124
20
-358.59135571174284
30
0
0
LWPOLYLINE
5
157
100
AcDbEntity
8
0
100
AcDbPolyline
90
8
70
1
43
0.0
10
1.6868970202334421
20
-354.17001330581286
10
1.6868970202334315
20
-339.16171481752986
10
-2.2071167282829887
20
-339.16171481753082
10
-2.2071167282829878
20
-354.17001330581286
10
-4.4322603124691282
20
-354.17001330581286
10
-4.4322603124691486
20
-337.55009040664385
10
3.9120406044195817
20
-337.55009040664385
10
3.9120406044195821
20
-354.17001330581286
0
ENDSEC
0
SECTION
2
OBJECTS
0
DICTIONARY
5
C
100
AcDbDictionary
3
ACAD_GROUP
350
D
3
ACAD_MLINESTYLE
350
17
0
DICTIONARY
5
D
100
AcDbDictionary
0
DICTIONARY
5
1A
330
C
100
AcDbDictionary
0
DICTIONARY
5
17
100
AcDbDictionary
0
ENDSEC
0
EOF
