0
SECTION
2
HEADER
9
$INSUNITS
70
4
9
$ACADVER
1
AC1014
9
$HANDSEED
5
FFFF
0
ENDSEC
0
SECTION
2
TABLES
0
TABLE
2
VPORT
5
8
100
AcDbSymbolTable
0
ENDTAB
0
TABLE
2
LTYPE
5
5
100
AcDbSymbolTable
0
LTYPE
5
14
100
AcDbSymbolTableRecord
100
AcDbLinetypeTableRecord
2
BYBLOCK
70
0
0
LTYPE
5
15
100
AcDbSymbolTableRecord
100
AcDbLinetypeTableRecord
2
BYLAYER
70
0
0
ENDTAB
0
TABLE
2
LAYER
5
2
100
AcDbSymbolTable
70
2
0
LAYER
5
50
100
AcDbSymbolTableRecord
100
AcDbLayerTableRecord
2
0
70
0
6
CONTINUOUS
0
ENDTAB
0
TABLE
2
STYLE
5
3
100
AcDbSymbolTable
70
1
0
STYLE
5
11
100
AcDbSymbolTableRecord
100
AcDbTextStyleTableRecord
2
STANDARD
70
0
0
ENDTAB
0
TABLE
2
VIEW
5
6
100
AcDbSymbolTable
70
0
0
ENDTAB
0
TABLE
2
UCS
5
7
100
AcDbSymbolTable
70
0
0
ENDTAB
0
TABLE
2
APPID
5
9
100
AcDbSymbolTable
70
2
0
APPID
5
12
100
AcDbSymbolTableRecord
100
AcDbRegAppTableRecord
2
ACAD
70
0
0
ENDTAB
0
TABLE
2
DIMSTYLE
5
A
100
AcDbSymbolTable
70
1
0
ENDTAB
0
TABLE
2
BLOCK_RECORD
5
1
100
AcDbSymbolTable
70
1
0
BLOCK_RECORD
5
1F
100
AcDbSymbolTableRecord
100
AcDbBlockTableRecord
2
*MODEL_SPACE
0
BLOCK_RECORD
5
1B
100
AcDbSymbolTableRecord
100
AcDbBlockTableRecord
2
*PAPER_SPACE
0
ENDTAB
0
ENDSEC
0
SECTION
2
BLOCKS
0
BLOCK
5
20
100
AcDbEntity
100
AcDbBlockBegin
2
*MODEL_SPACE
0
ENDBLK
5
21
100
AcDbEntity
100
AcDbBlockEnd
0
BLOCK
5
1C
100
AcDbEntity
100
AcDbBlockBegin
2
*PAPER_SPACE
0
ENDBLK
5
1D
100
AcDbEntity
100
AcDbBlockEnd
0
ENDSEC
0
SECTION
2
ENTITIES
0
LWPOLYLINE
5
100
100
AcDbEntity
8
0
100
AcDbPolyline
90
24
70
1
43
0.0
10
-42.338407371991408
20
-91.371559666944009
42
0.41421356237309503
10
-38.338407371991408
20
-95.371559666944009
10
38.6612497779713
20
-95.371559666944009
42
0.41421356237309537
10
42.661249777971307
20
-91.371559666944023
10
42.6612497779713
20
-49.113310987864828
10
42.643105359583913
20
-49.113310987864828
42
0.0058834528194994891
10
42.660562199454461
20
-48.113310987863699
10
42.660562199454461
20
-47.871562701928354
10
42.6612497779713
20
-47.871559666944009
42
0.22464563672652296
10
27.111938014257646
20
-15.009569410867062
42
0.43665946439191966
10
22.752080358829279
20
-15.608510002242888
10
21.889124666322267
20
-16.840938454403531
42
0.3912512566616827
10
22.437212560672034
20
-20.875606597942522
42
-0.22385607329201479
10
35.161249777971292
20
-47.871559666944009
10
35.160414857996173
20
-47.871562701928589
10
35.16041485799618
20
-48.11331098786394
42
-1.5708375991064225
10
-22.114713004729456
20
-20.875606597942522
42
0.39125125666168348
10
-21.566625110379675
20
-16.840938454403535
10
-22.429580802886679
20
-15.608510002242898
42
0.43665946439192072
10
-26.789438458315061
20
-15.009569410867059
42
0.22359101435158998
10
-42.338407371991416
20
-47.700848988825612
10
-42.338407371991408
20
-48.042270345062541
42
0.0063013594394007253
10
-42.320605803641328
20
-49.113310987864864
10
-42.338407371991408
20
-49.11331098786485
0
CIRCLE
5
101
100
AcDbEntity
8
0
100
AcDbCircle
10
37.661249777971307
20
-90.371559666944009
30
1.4210854715202004e-13
40
2.0999999999999996
210
-4.1146222553807595e-17
220
0
230
1
0
CIRCLE
5
102
100
AcDbEntity
8
0
100
AcDbCircle
10
-37.338407371991408
20
-75.371559666944009
30
-3.5527136788005009e-14
40
2.0999999999999996
210
-4.1146222553807595e-17
220
0
230
1
0
CIRCLE
5
103
100
AcDbEntity
8
0
100
AcDbCircle
10
-37.338407371991408
20
-90.371559666944009
30
1.4210854715202004e-13
40
2.0999999999999996
210
-4.1146222553807595e-17
220
0
230
1
0
CIRCLE
5
104
100
AcDbEntity
8
0
100
AcDbCircle
10
37.661249777971307
20
-75.371559666944009
30
-3.5527136788005009e-14
40
2.0999999999999996
210
-4.1146222553807595e-17
220
0
230
1
0
CIRCLE
5
105
100
AcDbEntity
8
0
100
AcDbCircle
10
37.661249777971307
20
-90.371559666944009
30
0
40
2.0999999999999996
210
-1.2284326740168359e-45
220
-2.310682013493621e-76
230
1
0
CIRCLE
5
106
100
AcDbEntity
8
0
100
AcDbCircle
10
-37.338407371991408
20
-75.371559666944009
30
0
40
2.0999999999999996
210
2.6323905071503228e-46
220
-1.0610554906849414e-77
230
1
0
CIRCLE
5
107
100
AcDbEntity
8
0
100
AcDbCircle
10
-37.338407371991408
20
-90.371559666944009
30
0
40
2.0999999999999996
210
-1.2284326740168359e-45
220
-2.310682013493621e-76
230
1
0
CIRCLE
5
108
100
AcDbEntity
8
0
100
AcDbCircle
10
37.661249777971307
20
-75.371559666944009
30
0
40
2.0999999999999996
210
2.6323905071503228e-46
220
-1.0610554906849414e-77
230
1
0
LWPOLYLINE
5
109
100
AcDbEntity
8
0
100
AcDbPolyline
90
24
70
1
43
0.0
10
-42.338407371991408
20
-91.371559666944009
42
0.41421356237309437
10
-38.338407371991408
20
-95.371559666944009
10
38.6612497779713
20
-95.371559666944009
42
0.41421356237309209
10
42.661249777971321
20
-91.371559666944052
10
42.6612497779713
20
-49.113310987864836
10
42.643105359583913
20
-49.113310987864828
42
0.0058834528194994891
10
42.660562199454468
20
-48.113310987863699
10
42.660562199454461
20
-47.871562701928354
10
42.6612497779713
20
-47.871559666944009
42
0.22464563672652293
10
27.11193801425765
20
-15.009569410867062
42
0.43665946439191983
10
22.752080358829282
20
-15.608510002242891
10
21.889124666322267
20
-16.840938454403531
42
0.39125125666168392
10
22.437212560672034
20
-20.875606597942525
42
-0.22385607329201515
10
35.161249777971285
20
-47.871559666944023
10
35.160414857996173
20
-47.871562701928589
10
35.16041485799618
20
-48.113310987863912
42
-1.5708375991064232
10
-22.114713004729456
20
-20.875606597942522
42
0.39125125666168348
10
-21.566625110379675
20
-16.840938454403535
10
-22.429580802886679
20
-15.608510002242898
42
0.43665946439192105
10
-26.789438458315061
20
-15.009569410867059
42
0.22359101435159001
10
-42.338407371991416
20
-47.700848988825619
10
-42.338407371991408
20
-48.042270345062541
42
0.0063013594394029284
10
-42.320605803641314
20
-49.113310987864871
10
-42.338407371991408
20
-49.11331098786485
0
ENDSEC
0
SECTION
2
OBJECTS
0
DICTIONARY
5
C
100
AcDbDictionary
3
ACAD_GROUP
350
D
3
ACAD_MLINESTYLE
350
17
0
DICTIONARY
5
D
100
AcDbDictionary
0
DICTIONARY
5
1A
330
C
100
AcDbDictionary
0
DICTIONARY
5
17
100
AcDbDictionary
0
ENDSEC
0
EOF
